<?xml version="1.0" encoding="utf-8"?>
<!-- Generator: Adobe Illustrator 24.0.1, SVG Export Plug-In . SVG Version: 6.00 Build 0)  -->
<svg version="1.1" id="Слой_1" xmlns="http://www.w3.org/2000/svg" xmlns:xlink="http://www.w3.org/1999/xlink" x="0px" y="0px"
	 viewBox="0 0 108.3 74.48" style="enable-background:new 0 0 108.3 74.48;" xml:space="preserve">
<style type="text/css">
	.st0{enable-background:new    ;}
	.st1{clip-path:url(#SVGID_2_);enable-background:new    ;}
	.st2{fill:#007494;}
	.st3{fill:#007798;}
	.st4{fill:#007A9C;}
	.st5{fill:#007DA0;}
	.st6{fill:#0080A4;}
	.st7{fill:#0083A8;}
	.st8{fill:#0085AC;}
	.st9{fill:#0088AF;}
	.st10{fill:#008BB3;}
	.st11{fill:#008EB7;}
	.st12{fill:#0097C3;}
	.st13{fill:#007495;}
	.st14{clip-path:url(#SVGID_4_);enable-background:new    ;}
	.st15{clip-path:url(#SVGID_6_);enable-background:new    ;}
	.st16{fill:#8B98A0;}
	.st17{clip-path:url(#SVGID_8_);enable-background:new    ;}
	.st18{clip-path:url(#SVGID_10_);enable-background:new    ;}
	.st19{clip-path:url(#SVGID_12_);enable-background:new    ;}
	.st20{clip-path:url(#SVGID_14_);enable-background:new    ;}
	.st21{fill:#96A4AD;}
	.st22{fill:#9AA8B1;}
	.st23{fill:#9DACB5;}
	.st24{fill:#A1B0B9;}
	.st25{fill:#A4B4BD;}
	.st26{fill:#A8B7C1;}
	.st27{fill:#ABBBC5;}
	.st28{clip-path:url(#SVGID_16_);enable-background:new    ;}
	.st29{fill:#8C99A1;}
	.st30{fill:#B6C7D2;}
	.st31{fill:#C6D9E5;}
	.st32{clip-path:url(#SVGID_18_);enable-background:new    ;}
	.st33{fill:#93A0A8;}
	.st34{fill:#8F9CA4;}
	.st35{clip-path:url(#SVGID_20_);enable-background:new    ;}
	.st36{fill:#00A5D5;}
	.st37{opacity:0.5;}
	.st38{fill:#FFFFFF;}
	.st39{fill:#B90066;}
	.st40{fill:#BD0068;}
	.st41{fill:#0084BC;}
	.st42{fill:#00658F;}
	.st43{fill:#0081B8;}
	.st44{fill:#0090CD;}
	.st45{fill:#CF0072;}
	.st46{fill:#92004F;}
	.st47{fill:#CBBA00;}
	.st48{fill:#A29500;}
	.st49{fill:#EBD600;}
	.st50{fill:#D6C400;}
</style>
<g>
	<g>
		<g>
			<g class="st0">
				<g class="st0">
					<defs>
						<path id="SVGID_1_" class="st0" d="M63.78,9.67l-0.01,1.61c-3.52-2.38-9.63-2.61-13.61-0.53l0.01-1.61
							C54.16,7.06,60.26,7.3,63.78,9.67z"/>
					</defs>
					<clipPath id="SVGID_2_">
						<use xlink:href="#SVGID_1_"  style="overflow:visible;"/>
					</clipPath>
					<g class="st1">
						<path class="st2" d="M63.78,9.67l-0.01,1.61c-0.59-0.4-1.25-0.73-1.95-1.01l0.01-1.61C62.54,8.94,63.2,9.27,63.78,9.67"/>
						<path class="st3" d="M61.83,8.66l-0.01,1.61c-0.39-0.15-0.79-0.28-1.2-0.4l0.01-1.61C61.04,8.38,61.44,8.51,61.83,8.66"/>
						<path class="st4" d="M60.63,8.26l-0.01,1.61c-0.34-0.09-0.69-0.18-1.05-0.25l0.01-1.61C59.93,8.09,60.28,8.17,60.63,8.26"/>
						<path class="st5" d="M59.58,8.02l-0.01,1.61c-0.33-0.06-0.66-0.12-0.99-0.16l0.01-1.61C58.92,7.9,59.25,7.95,59.58,8.02"/>
						<path class="st6" d="M58.59,7.85l-0.01,1.61c-0.32-0.04-0.65-0.07-0.98-0.1l0.01-1.61C57.94,7.78,58.26,7.81,58.59,7.85"/>
						<path class="st7" d="M57.61,7.76L57.6,9.37c-0.33-0.02-0.66-0.03-0.99-0.04l0.01-1.61C56.95,7.72,57.28,7.74,57.61,7.76"/>
						<path class="st8" d="M56.62,7.72l-0.01,1.61c-0.35,0-0.69,0.01-1.04,0.03l0.01-1.61C55.92,7.73,56.27,7.72,56.62,7.72"/>
						<path class="st9" d="M55.58,7.75l-0.01,1.61c-0.38,0.02-0.76,0.06-1.14,0.11l0.01-1.61C54.81,7.81,55.19,7.77,55.58,7.75"/>
						<path class="st10" d="M54.43,7.85l-0.01,1.61c-0.47,0.06-0.93,0.14-1.38,0.24l0.01-1.61C53.51,8,53.97,7.92,54.43,7.85"/>
						<path class="st11" d="M53.06,8.1l-0.01,1.61c-1.03,0.24-2.01,0.58-2.89,1.04l0.01-1.61C51.05,8.68,52.03,8.33,53.06,8.1"/>
					</g>
				</g>
				<g>
					<polygon class="st12" points="50.17,9.14 50.16,10.75 9.02,32.21 9.03,30.6 					"/>
				</g>
				<g>
					<polygon class="st13" points="100.13,34.19 100.13,35.8 63.78,11.28 63.78,9.67 					"/>
				</g>
				<g class="st0">
					<defs>
						<path id="SVGID_3_" class="st0" d="M5.76,36.48l0.01-1.61c0.01-1.58,1.11-3.15,3.26-4.27l-0.01,1.61
							C6.87,33.33,5.77,34.9,5.76,36.48z"/>
					</defs>
					<clipPath id="SVGID_4_">
						<use xlink:href="#SVGID_3_"  style="overflow:visible;"/>
					</clipPath>
					<g class="st14">
						<path class="st11" d="M9.03,30.6l-0.01,1.61c-0.61,0.32-1.14,0.68-1.59,1.06l0.01-1.61C7.89,31.28,8.41,30.92,9.03,30.6"/>
						<path class="st10" d="M7.44,31.66l-0.01,1.61C7.17,33.5,6.93,33.75,6.72,34l0.01-1.61C6.94,32.14,7.17,31.89,7.44,31.66"/>
						<path class="st9" d="M6.73,32.39L6.72,34c-0.17,0.2-0.31,0.41-0.43,0.63l0.01-1.61C6.42,32.8,6.56,32.59,6.73,32.39"/>
						<path class="st8" d="M6.3,33.02l-0.01,1.61C6.18,34.82,6.08,35.02,6,35.22l0.01-1.61C6.09,33.41,6.18,33.21,6.3,33.02"/>
						<path class="st7" d="M6.01,33.61L6,35.22c-0.07,0.19-0.13,0.39-0.17,0.58l0.01-1.61C5.88,33.99,5.94,33.8,6.01,33.61"/>
						<path class="st6" d="M5.84,34.19L5.83,35.8c-0.04,0.19-0.06,0.39-0.07,0.59l0.01-1.61C5.78,34.58,5.8,34.38,5.84,34.19"/>
						<path class="st5" d="M5.77,34.78l-0.01,1.61c0,0.03,0,0.06,0,0.09l0.01-1.61C5.77,34.84,5.77,34.81,5.77,34.78"/>
					</g>
				</g>
				<g class="st0">
					<defs>
						<path id="SVGID_5_" class="st0" d="M6.26,38.31c-0.33-0.59-0.5-1.21-0.5-1.83l0.01-1.61c0,0.62,0.16,1.24,0.5,1.83
							C6.26,37.24,6.26,37.78,6.26,38.31z"/>
					</defs>
					<clipPath id="SVGID_6_">
						<use xlink:href="#SVGID_5_"  style="overflow:visible;"/>
					</clipPath>
					<g class="st15">
						<path class="st16" d="M8.18,38.67l-0.01,1.61c-1.62-1.09-2.42-2.45-2.41-3.8l0.01-1.61C5.76,36.22,6.56,37.58,8.18,38.67"/>
					</g>
				</g>
				<g class="st0">
					<defs>
						<path id="SVGID_7_" class="st0" d="M102.55,38l-0.01,1.61c0.01-1.35-0.79-2.71-2.41-3.81l0.01-1.61
							C101.76,35.28,102.55,36.64,102.55,38z"/>
					</defs>
					<clipPath id="SVGID_8_">
						<use xlink:href="#SVGID_7_"  style="overflow:visible;"/>
					</clipPath>
					<g class="st17">
						<path class="st2" d="M102.55,38l-0.01,1.61c0.01-1.35-0.79-2.71-2.41-3.81l0.01-1.61C101.76,35.28,102.55,36.64,102.55,38"/>
					</g>
				</g>
				<g class="st0">
					<defs>
						<path id="SVGID_9_" class="st0" d="M8.17,40.28c-0.88-0.59-1.52-1.27-1.91-1.97c0-0.54,0-1.07,0.01-1.61
							c0.4,0.71,1.03,1.38,1.91,1.97C8.18,39.16,8.18,39.8,8.17,40.28z"/>
					</defs>
					<clipPath id="SVGID_10_">
						<use xlink:href="#SVGID_9_"  style="overflow:visible;"/>
					</clipPath>
					<g class="st18">
						<path class="st16" d="M8.18,38.67l-0.01,1.61c-1.62-1.09-2.42-2.45-2.41-3.8l0.01-1.61C5.76,36.22,6.56,37.58,8.18,38.67"/>
					</g>
				</g>
				<g class="st0">
					<defs>
						<path id="SVGID_11_" class="st0" d="M5.48,36.48l0.01-1.61c-0.01,1.39,0.81,2.79,2.48,3.92L7.96,40.4
							C6.29,39.27,5.47,37.87,5.48,36.48z"/>
					</defs>
					<clipPath id="SVGID_12_">
						<use xlink:href="#SVGID_11_"  style="overflow:visible;"/>
					</clipPath>
					<g class="st19">
						<path class="st2" d="M7.96,38.79L7.96,40.4c-1.67-1.13-2.49-2.53-2.48-3.92l0.01-1.61C5.48,36.26,6.3,37.66,7.96,38.79"/>
					</g>
				</g>
				<g class="st0">
					<defs>
						<path id="SVGID_13_" class="st0" d="M102.54,39.61c-0.01,1.58-1.11,3.15-3.26,4.27l0.01-1.61c2.15-1.12,3.25-2.69,3.26-4.27
							C102.54,38.48,102.54,39.12,102.54,39.61z"/>
					</defs>
					<clipPath id="SVGID_14_">
						<use xlink:href="#SVGID_13_"  style="overflow:visible;"/>
					</clipPath>
					<g class="st20">
						<path class="st21" d="M102.55,38l-0.01,1.61c0,0.03,0,0.06,0,0.1l0.01-1.61C102.55,38.06,102.55,38.03,102.55,38"/>
						<path class="st22" d="M102.54,38.09l-0.01,1.61c-0.01,0.2-0.03,0.39-0.07,0.59l0.01-1.61
							C102.51,38.49,102.54,38.29,102.54,38.09"/>
						<path class="st23" d="M102.47,38.68l-0.01,1.61c-0.04,0.19-0.1,0.39-0.17,0.58l0.01-1.61
							C102.38,39.07,102.43,38.88,102.47,38.68"/>
						<path class="st24" d="M102.3,39.26l-0.01,1.61c-0.08,0.2-0.17,0.4-0.28,0.59l0.01-1.61C102.13,39.66,102.23,39.46,102.3,39.26
							"/>
						<path class="st25" d="M102.02,39.85l-0.01,1.61c-0.12,0.21-0.27,0.42-0.43,0.63l0.01-1.61
							C101.75,40.28,101.9,40.07,102.02,39.85"/>
						<path class="st26" d="M101.59,40.48l-0.01,1.61c-0.21,0.25-0.44,0.5-0.71,0.73l0.01-1.61
							C101.14,40.98,101.38,40.73,101.59,40.48"/>
						<path class="st27" d="M100.87,41.21l-0.01,1.61c-0.44,0.38-0.97,0.74-1.58,1.06l0.01-1.61
							C99.9,41.95,100.43,41.59,100.87,41.21"/>
					</g>
				</g>
				<g class="st0">
					<defs>
						<path id="SVGID_15_" class="st0" d="M102.83,38l-0.01,1.61c-0.01,1.63-1.14,3.24-3.35,4.39l0.01-1.61
							C101.69,41.25,102.82,39.63,102.83,38z"/>
					</defs>
					<clipPath id="SVGID_16_">
						<use xlink:href="#SVGID_15_"  style="overflow:visible;"/>
					</clipPath>
					<g class="st28">
						<path class="st5" d="M102.83,38l-0.01,1.61c0,0.03,0,0.07,0,0.1l0.01-1.61C102.83,38.07,102.83,38.04,102.83,38"/>
						<path class="st6" d="M102.83,38.1l-0.01,1.61c-0.01,0.2-0.03,0.4-0.07,0.61l0.01-1.61C102.8,38.51,102.82,38.3,102.83,38.1"/>
						<path class="st7" d="M102.76,38.71l-0.01,1.61c-0.04,0.2-0.1,0.4-0.18,0.6l0.01-1.61C102.66,39.11,102.71,38.91,102.76,38.71"
							/>
						<path class="st8" d="M102.58,39.3l-0.01,1.61c-0.08,0.21-0.18,0.41-0.29,0.61l0.01-1.61C102.4,39.71,102.5,39.51,102.58,39.3"
							/>
						<path class="st9" d="M102.29,39.91l-0.01,1.61c-0.13,0.22-0.28,0.43-0.45,0.64l0.01-1.61
							C102.01,40.35,102.16,40.13,102.29,39.91"/>
						<path class="st10" d="M101.84,40.56l-0.01,1.61c-0.21,0.26-0.46,0.51-0.73,0.75l0.01-1.61
							C101.39,41.07,101.63,40.82,101.84,40.56"/>
						<path class="st11" d="M101.11,41.31l-0.01,1.61c-0.45,0.39-1,0.76-1.63,1.09l0.01-1.61C100.11,42.07,100.65,41.7,101.11,41.31
							"/>
					</g>
				</g>
				<g>
					<polygon class="st29" points="44.53,63.19 44.52,64.8 8.17,40.28 8.18,38.67 					"/>
				</g>
				<g>
					<polygon class="st13" points="44.31,63.31 44.31,64.91 7.96,40.4 7.96,38.79 					"/>
				</g>
				<g>
					<polygon class="st30" points="99.29,42.27 99.28,43.88 58.14,65.34 58.15,63.73 					"/>
				</g>
				<g>
					<polygon class="st12" points="99.48,42.4 99.47,44.01 58.33,65.47 58.34,63.86 					"/>
				</g>
				<g>
					<path class="st31" d="M100.13,34.19c3.52,2.38,3.14,6-0.84,8.08L58.15,63.73c-3.99,2.08-10.1,1.84-13.62-0.54L8.18,38.67
						c-3.52-2.38-3.14-6,0.85-8.08L50.17,9.14c3.99-2.08,10.09-1.84,13.61,0.53L100.13,34.19z"/>
				</g>
				<g class="st0">
					<defs>
						<path id="SVGID_17_" class="st0" d="M58.15,63.73l-0.01,1.61c-3.99,2.08-10.1,1.84-13.62-0.54l0.01-1.61
							C48.05,65.57,54.16,65.81,58.15,63.73z"/>
					</defs>
					<clipPath id="SVGID_18_">
						<use xlink:href="#SVGID_17_"  style="overflow:visible;"/>
					</clipPath>
					<g class="st32">
						<path class="st27" d="M58.15,63.73l-0.01,1.61c-0.88,0.46-1.85,0.8-2.88,1.04l0.01-1.61C56.3,64.53,57.27,64.19,58.15,63.73"
							/>
						<path class="st26" d="M55.26,64.77l-0.01,1.61c-0.45,0.1-0.91,0.18-1.38,0.24l0.01-1.61C54.36,64.95,54.82,64.87,55.26,64.77"
							/>
						<path class="st25" d="M53.89,65.01l-0.01,1.61c-0.38,0.05-0.76,0.08-1.14,0.11l0.01-1.61C53.13,65.1,53.51,65.06,53.89,65.01"
							/>
						<path class="st24" d="M52.75,65.12l-0.01,1.61c-0.35,0.02-0.69,0.03-1.04,0.03l0.01-1.61C52.05,65.15,52.4,65.14,52.75,65.12"
							/>
						<path class="st23" d="M51.71,65.14l-0.01,1.61c-0.33,0-0.66-0.01-0.99-0.04l0.01-1.61C51.04,65.13,51.38,65.14,51.71,65.14"/>
						<path class="st22" d="M50.71,65.11l-0.01,1.61c-0.33-0.02-0.65-0.05-0.98-0.1l0.01-1.61C50.06,65.05,50.39,65.09,50.71,65.11"
							/>
						<path class="st21" d="M49.74,65.01l-0.01,1.61c-0.34-0.04-0.67-0.1-1-0.16l0.01-1.61C49.07,64.91,49.4,64.97,49.74,65.01"/>
						<path class="st33" d="M48.74,64.85l-0.01,1.61c-0.36-0.07-0.71-0.15-1.05-0.25l0.01-1.61C48.03,64.7,48.38,64.78,48.74,64.85"
							/>
						<path class="st34" d="M47.69,64.6l-0.01,1.61c-0.41-0.12-0.82-0.25-1.21-0.4l0.01-1.61C46.87,64.35,47.28,64.49,47.69,64.6"/>
						<path class="st16" d="M46.49,64.2l-0.01,1.61c-0.71-0.28-1.37-0.61-1.96-1.01l0.01-1.61C45.12,63.59,45.78,63.93,46.49,64.2"
							/>
					</g>
				</g>
				<g class="st0">
					<defs>
						<path id="SVGID_19_" class="st0" d="M58.34,63.86l-0.01,1.61c-4.11,2.14-10.4,1.89-14.02-0.55l0.01-1.61
							C47.94,65.75,54.23,66,58.34,63.86z"/>
					</defs>
					<clipPath id="SVGID_20_">
						<use xlink:href="#SVGID_19_"  style="overflow:visible;"/>
					</clipPath>
					<g class="st35">
						<path class="st11" d="M58.34,63.86l-0.01,1.61c-0.9,0.47-1.91,0.83-2.97,1.07l0.01-1.61C56.43,64.68,57.44,64.33,58.34,63.86"
							/>
						<path class="st10" d="M55.37,64.93l-0.01,1.61c-0.46,0.11-0.94,0.19-1.42,0.25l0.01-1.61C54.43,65.12,54.9,65.03,55.37,64.93"
							/>
						<path class="st9" d="M53.95,65.18l-0.01,1.61c-0.39,0.05-0.78,0.09-1.18,0.11l0.01-1.61C53.17,65.27,53.56,65.23,53.95,65.18"
							/>
						<path class="st8" d="M52.78,65.29l-0.01,1.61c-0.36,0.02-0.71,0.03-1.07,0.03l0.01-1.61C52.06,65.32,52.42,65.31,52.78,65.29"
							/>
						<path class="st7" d="M51.71,65.32l-0.01,1.61c-0.34,0-0.68-0.01-1.02-0.04l0.01-1.61C51.02,65.3,51.36,65.31,51.71,65.32"/>
						<path class="st6" d="M50.68,65.28l-0.01,1.61c-0.34-0.02-0.67-0.06-1.01-0.1l0.01-1.61C50.01,65.22,50.35,65.26,50.68,65.28"
							/>
						<path class="st5" d="M49.68,65.18l-0.01,1.61c-0.35-0.04-0.69-0.1-1.03-0.17l0.01-1.61C48.99,65.08,49.33,65.14,49.68,65.18"
							/>
						<path class="st4" d="M48.65,65.01l-0.01,1.61c-0.37-0.07-0.73-0.16-1.08-0.26l0.01-1.61C47.93,64.86,48.29,64.94,48.65,65.01"
							/>
						<path class="st3" d="M47.57,64.76l-0.01,1.61c-0.43-0.12-0.84-0.26-1.24-0.41l0.01-1.61C46.73,64.5,47.15,64.64,47.57,64.76"
							/>
						<path class="st2" d="M46.33,64.35l-0.01,1.61c-0.73-0.29-1.41-0.63-2.02-1.04l0.01-1.61C44.92,63.71,45.6,64.06,46.33,64.35"
							/>
					</g>
				</g>
				<g>
					<path class="st36" d="M100.34,34.08c3.63,2.45,3.24,6.18-0.86,8.32L58.34,63.86c-4.11,2.14-10.4,1.89-14.02-0.55L7.96,38.79
						c-3.62-2.44-3.23-6.17,0.87-8.32L49.98,9.01c4.1-2.14,10.39-1.89,14.01,0.55L100.34,34.08z M58.15,63.73l41.14-21.46
						c3.99-2.08,4.36-5.7,0.84-8.08L63.78,9.67c-3.52-2.38-9.63-2.61-13.61-0.53L9.03,30.6c-3.99,2.08-4.37,5.7-0.85,8.08
						l36.35,24.52C48.05,65.57,54.16,65.81,58.15,63.73"/>
				</g>
			</g>
		</g>
	</g>
	<g class="st37">
		<g>
			<g class="st0">
				<g>
					<path class="st38" d="M15.51,30.72l0-0.85c0,0.87,0.51,1.74,1.55,2.44l0,0.85C16.02,32.46,15.51,31.59,15.51,30.72z"/>
				</g>
				<g>
					<path class="st38" d="M95.15,40.03l0,0.85c0,1.01-0.71,2.01-2.09,2.73l0-0.85C94.44,42.05,95.15,41.04,95.15,40.03z"/>
				</g>
				<g>
					<polygon class="st38" points="54.86,57.81 54.85,58.65 17.06,33.16 17.06,32.31 					"/>
				</g>
				<g>
					<polygon class="st38" points="93.07,42.76 93.06,43.61 63.57,59 63.57,58.15 					"/>
				</g>
				<g>
					<path class="st38" d="M93.61,37.59c2.26,1.52,2.02,3.84-0.54,5.17L63.57,58.15c-2.56,1.33-6.46,1.18-8.71-0.34l-37.8-25.49
						c-2.26-1.52-2.02-3.84,0.54-5.17l29.49-15.39c2.56-1.33,6.46-1.18,8.71,0.34L93.61,37.59z"/>
				</g>
				<g>
					<path class="st38" d="M63.57,58.15l0,0.85c-2.56,1.33-6.46,1.18-8.71-0.34l0-0.85C57.12,59.33,61.02,59.48,63.57,58.15z"/>
				</g>
			</g>
		</g>
	</g>
	<g>
		<g>
			<g class="st0">
				<g>
					<polygon class="st39" points="61.87,30.68 61.87,31.08 49,33.76 49,33.36 					"/>
				</g>
				<g>
					<polygon class="st40" points="70.16,26.44 70.16,26.85 61.74,31.24 61.74,30.83 					"/>
				</g>
				<g>
					<polygon class="st41" points="52.4,26.6 52.4,27 33.03,37.1 33.03,36.7 					"/>
				</g>
				<g>
					<polygon class="st39" points="40.66,35.12 40.66,35.53 33.03,37.1 33.03,36.7 					"/>
				</g>
				<g>
					<polygon class="st42" points="32.83,36.74 32.83,37.14 25.27,32.04 25.27,31.64 					"/>
				</g>
				<g>
					<polygon class="st43" points="33.03,36.7 33.03,37.1 32.83,37.14 32.83,36.74 					"/>
				</g>
				<g>
					<polygon class="st44" points="52.4,26.6 33.03,36.7 32.83,36.74 25.27,31.64 					"/>
				</g>
				<g>
					<polygon class="st45" points="70.16,26.44 61.74,30.83 61.87,30.68 49,33.36 52.45,35.68 46.27,38.91 40.66,35.12 33.03,36.7 
						52.4,26.6 66.49,23.97 					"/>
				</g>
				<g>
					<polygon class="st40" points="52.45,35.68 52.44,36.09 46.27,39.31 46.27,38.91 					"/>
				</g>
				<g>
					<polygon class="st46" points="46.27,38.91 46.27,39.31 40.66,35.53 40.66,35.12 					"/>
				</g>
			</g>
			<g class="st0">
				<g>
					<polygon class="st47" points="73.79,28.9 73.79,29.3 67.59,37.3 67.59,36.9 					"/>
				</g>
				<g>
					<polygon class="st48" points="51.74,42.6 51.74,43 46.27,39.31 46.27,38.91 					"/>
				</g>
				<g>
					<polygon class="st49" points="73.79,28.9 67.59,36.9 48.12,47.05 48.03,46.99 51.74,42.6 46.27,38.91 52.45,35.68 55.74,37.91 
						61.74,30.83 70.16,26.44 					"/>
				</g>
				<g>
					<polygon class="st50" points="67.59,36.9 67.59,37.3 48.12,47.46 48.12,47.05 					"/>
				</g>
				<g>
					<polygon class="st48" points="48.12,47.05 48.12,47.46 48.03,47.39 48.03,46.99 					"/>
				</g>
			</g>
			<g class="st0">
				<g>
					<polygon points="67.59,36.9 55.74,52.19 48.12,47.05 					"/>
				</g>
				<g>
					<polygon points="67.59,36.9 67.59,37.3 55.74,52.59 55.74,52.19 					"/>
				</g>
				<g>
					<polygon points="55.74,52.19 55.74,52.59 48.12,47.46 48.12,47.05 					"/>
				</g>
			</g>
		</g>
	</g>
</g>
</svg>
